<svg width="498" height="436" viewBox="0 0 498 436" fill="none" xmlns="http://www.w3.org/2000/svg">
<g clip-path="url(#clip0)">
<path d="M388.726 339.973C390.425 337.137 390.425 337.137 389.03 336.119C382.931 331.634 385.86 321.7 393.457 321.029L395.286 320.888L395.436 319.329C395.629 317.374 395.681 313.414 395.493 313.277C395.413 313.218 394.664 313.061 393.826 312.915C392.004 312.596 389.247 310.741 387.998 309.016C386.971 307.607 386.285 304.546 386.54 302.675C386.809 300.503 388.53 297.916 390.363 296.924C392.087 295.969 392.159 296.603 389.72 291.72C388.833 289.948 387.935 288.362 387.694 288.186C387.452 288.01 386.973 288.048 386.571 288.26C385.24 288.959 383.175 289.199 381.326 288.86C378.81 288.423 376.09 286.517 374.867 284.306C373.317 281.585 373.399 277.415 375.025 275.185C375.413 274.653 375.343 274.524 374.135 273.643C373.411 273.115 372.67 272.497 372.529 272.239C372.335 271.942 371.989 272.079 371.3 272.741C368.142 275.833 363.609 276.02 359.754 273.248C356.963 271.214 355.806 268.857 355.859 265.402L355.863 264.551L351.949 263.833C346.782 262.86 346.964 262.837 346.739 264.497C346.073 269.018 341.341 272.127 336.563 271.127C334.039 270.645 331.42 268.657 330.198 266.331L329.248 264.591L328.359 264.796C327.851 264.93 325.978 265.582 324.185 266.294C321.438 267.357 320.963 267.67 321.182 268.102C322.226 270.221 322.132 273.956 320.989 275.412C320.463 276.077 320.418 276.082 320.635 275.503C320.815 274.975 320.304 275.223 318.629 276.563C317.393 277.525 315.884 278.637 315.29 279.058L314.175 279.797L315.627 279.497C316.434 279.348 316.786 279.372 316.404 279.559C314.445 280.499 310.295 279.879 308.202 278.353C307.209 277.629 307.191 277.655 306.172 278.658C305.611 279.258 304.496 280.618 303.701 281.708C302.297 283.634 302.269 283.729 302.859 284.16C304.147 285.099 305.613 287.371 306.075 289.105C306.572 290.903 306.281 293.951 305.57 294.869C305.367 295.147 305.372 294.802 305.591 294.108C305.828 293.388 306.032 292.489 306.056 292.118C306.093 291.447 306.066 291.427 305.775 292.108C305.597 292.521 305.1 293.711 304.622 294.76C303.863 296.534 303.861 296.65 304.554 296.262C305.229 295.901 305.174 295.977 304.319 296.867C302.324 298.983 299.453 299.878 295.923 299.478C295.381 299.432 295.248 299.84 294.752 303.281C294 308.709 293.992 308.665 295.506 308.954C301.735 310.274 304.873 317.918 301.225 322.865C300.726 323.549 299.581 324.499 298.578 325.087C297.237 325.856 296.861 326.202 297.018 326.55C297.105 326.769 297.82 328.493 298.597 330.302L299.984 333.641L302.377 333.29C305.902 332.795 308.742 333.972 310.994 336.857C313.061 339.489 313.38 343.447 311.787 346.477C311.061 347.811 311.078 347.901 311.906 348.737C313.019 349.86 318.895 354.143 320.572 355.056L321.89 355.784L323.281 354.159C326.329 350.598 331.2 350.23 335.331 353.242C337.746 355.003 339.233 358.26 338.954 361.123C338.919 361.679 339.143 361.765 340.922 361.975C342.014 362.112 343.946 362.279 345.193 362.373L347.488 362.494L347.793 360.892C348.216 358.677 349.805 356.498 351.911 355.356C353.608 354.381 356.771 353.932 357.222 354.61C357.354 354.823 357.571 354.864 357.628 354.673C357.824 354.234 360.09 355.071 361.611 356.141C362.282 356.63 363.191 357.526 363.633 358.159C364.076 358.792 364.51 359.38 364.59 359.439C364.671 359.497 366.409 358.747 368.459 357.796C371.948 356.11 372.158 355.991 371.878 355.36C370.836 353.126 370.697 349.26 371.656 348.057C371.988 347.601 372.015 347.621 371.879 348.259C371.761 348.871 371.806 348.865 372.268 348.232C372.904 347.415 376.559 344.375 377.672 343.75L378.429 343.332L377.416 343.369C376.89 343.413 377.191 343.283 378.089 343.123C379.929 342.796 382.066 343.19 384.014 344.183L385.27 344.827L386.682 342.946C387.467 341.927 388.374 340.57 388.726 339.973ZM374.868 344.384C374.287 344.504 375.192 343.883 375.837 343.732C376.545 343.55 376.545 343.55 375.806 343.942C375.387 344.18 374.959 344.372 374.868 344.384ZM373.898 345.151C373.873 345.017 374.012 344.769 374.222 344.65C374.45 344.506 374.475 344.641 374.272 344.92C374.096 345.218 373.904 345.311 373.898 345.151ZM372.106 346.989C372.237 346.696 372.57 346.24 372.845 345.975C373.139 345.685 373.045 345.927 372.638 346.484C372.259 347.061 372.02 347.275 372.106 346.989ZM352.521 325.607C339.906 332.089 325.682 318.458 331.524 305.486C333.087 302.046 337.267 298.962 341.202 298.299C349.642 296.924 357.884 302.584 359.413 310.8C360.23 315.316 359.447 318.587 356.671 322.113C355.094 324.107 354.617 324.535 352.521 325.607Z" fill="black"/>
<path d="M386.667 327.411C386.834 326.563 386.878 326.051 386.749 326.229C386.426 326.615 385.931 328.815 386.119 328.952C386.226 329.03 386.299 329.044 386.29 328.999C386.3 328.929 386.474 328.24 386.667 327.411Z" fill="black"/>
<path d="M356.146 354.563C355.604 354.517 354.698 354.633 354.126 354.798C353.072 355.116 351.881 355.567 352.288 355.515C355.153 355.081 356.95 354.645 356.146 354.563Z" fill="black"/>
<path d="M442.011 233.637C440.179 231.641 438.984 229.955 437.974 228.015C436.691 225.605 435.748 222.783 436.139 222.641C436.285 222.554 436.303 222.023 436.167 221.42C435.819 219.924 435.748 216.923 435.991 214.616C436.079 213.594 436.1 212.833 436.007 212.959C435.619 213.491 435.432 217.468 435.683 219.942L435.985 222.684L435.504 219.85C435.01 216.695 435.461 212.638 436.668 209.405C438.083 205.547 441.694 201.271 445.446 199C446.861 198.13 446.327 198.75 444.681 199.879C442.341 201.51 442.161 202.039 444.481 200.548C447.478 198.58 447.515 198.529 447.045 198.497C446.738 198.467 446.758 198.327 447.077 198.171C447.387 197.971 447.532 197.998 447.518 198.299C447.515 198.529 448.367 198.374 449.604 197.918C450.75 197.473 452.739 196.943 454.017 196.711C455.296 196.479 456.331 196.186 456.306 196.052C456.173 195.333 463.705 196.556 466.013 197.618C466.749 197.96 467.074 197.965 467.189 197.582C467.32 197.29 467.809 196.055 468.325 194.84C470.325 190.012 472.266 183.743 474.084 176.064L474.269 175.19L472.21 174.465C469.07 173.417 463.964 169.656 461.818 166.85C456.808 160.364 455.312 152.947 457.496 145.613C458.068 143.701 458.542 142.882 460.758 139.842C462.735 137.13 463.738 136.037 464.963 135.145C467.213 133.525 471.184 131.686 473.469 131.257L475.392 130.873L475.023 128.392C474.454 124.834 473.076 118.551 471.918 114.447L470.933 110.895L467.382 111.256C460.345 111.947 453.473 109.537 448.385 104.624C440.195 96.7511 438.542 84.8729 444.412 75.9191C445.44 74.3401 446.703 72.777 447.556 72.0017C449.922 69.8843 449.901 70.0248 448.492 68.1821C445.23 63.8636 435.928 53.6274 433.916 52.1604C433.621 51.9452 433.32 52.0754 432.951 52.5822C432.637 53.013 431.455 54.0141 430.285 54.8299C424.9 58.6655 417.629 59.8457 410.892 58.0389C407.65 57.1884 405.533 56.0334 402.111 53.3442C399.529 51.3063 398.781 50.5283 397.419 48.5647C394.588 44.444 393.145 40.0544 393.092 35.2807C393.042 32.644 393.686 28.9995 394.536 27.2133C394.798 26.6283 394.978 26.0997 394.897 26.041C394.763 25.9432 388.653 23.39 386.047 22.3435C384.77 21.8398 384.634 21.8571 384.325 22.5631C384.174 22.9961 383.384 24.3609 382.596 25.6105C379.406 30.7749 374 34.2455 367.563 35.2963C355.433 37.2802 343.192 28.821 340.342 16.4977L339.74 13.8855L336.846 13.9099C332.821 13.9636 324.22 14.601 320.124 15.1464L316.735 15.6247L317.184 18.1645C317.425 19.5817 317.584 21.5609 317.523 22.603C317.446 24.6813 316.362 29.3242 315.836 29.9888C315.541 30.3943 315.487 30.3552 315.605 29.7426C315.676 29.2509 315.583 29.3776 315.155 30.1907C314.856 30.8264 314.019 32.3121 313.34 33.5248L312.077 35.7085L313.844 33.1158C314.806 31.683 315.515 30.8802 315.364 31.3132C315.212 31.7462 314.332 33.1225 313.454 34.3837C307.548 42.6524 296.517 45.5535 286.641 41.458C283.146 39.9963 279.024 36.9136 276.86 34.1329C275.901 32.9681 275.006 31.7722 274.839 31.4948C274.468 30.8756 274.131 31.0565 268.852 34.4648C265.436 36.6703 258.785 41.6786 257.059 43.3696L256.132 44.2463L257.356 45.8369C259.625 48.8111 260.945 51.7914 261.682 55.6275C262.31 58.8799 262.405 63.8781 261.835 63.9279C261.726 63.9648 261.691 63.2797 261.812 62.4369C262.079 60.3803 261.967 57.6596 261.536 55.7151C261.233 54.2138 261.196 54.2645 261.352 56.474C261.641 60.0225 261.461 62.9183 260.852 65.5012C260.29 67.9632 260.503 68.2348 261.135 65.9017C261.364 65.1371 261.618 64.5072 261.727 64.4703C261.844 64.4783 261.604 65.4283 261.25 66.6455C260.776 68.085 259.946 69.7307 258.623 71.7152C256.279 75.3237 254.134 77.2521 250.562 78.9947C247.7 80.44 243.55 81.5669 243.279 80.9809C243.192 80.7622 243.12 80.7484 243.098 81.004C243.062 81.5602 238.596 81.4863 235.576 80.8372C234.152 80.5362 232.037 79.8867 230.905 79.4106L228.865 78.5445L227.691 80.8318C225.268 85.5076 220.889 96.2476 221.066 97.0754C221.065 97.1906 221.496 97.3884 221.964 97.5355C223.926 98.1126 227.491 100.324 229.649 102.324C233.715 106.103 236.215 110.565 237.157 115.754C238.216 121.571 237.134 126.72 233.905 131.429C232.222 133.85 232.167 133.926 233.244 132.111L234.442 130.074L233.242 131.606C232.025 133.163 229.449 135.399 226.46 137.527C224.512 138.902 224.662 139.205 226.661 137.984C227.382 137.502 227.983 137.241 228.008 137.376C228.052 137.485 227.011 138.123 225.762 138.765C223.174 140.061 219.615 140.997 216.738 141.112L214.801 141.175L213.391 138.206C211.945 135.173 208.424 128.957 208.16 129.036C208.088 129.023 207.232 129.408 206.294 129.849C203.963 130.905 200.35 131.182 197.456 130.586C195.185 130.094 194.88 129.949 191.955 127.817C189.031 125.685 188.8 125.438 187.637 123.426C185.021 118.841 184.942 113.428 187.436 109.386L188.661 107.368L185.79 105.275L182.919 103.182L181.605 104.591C176.987 109.685 167.472 109.772 161.879 104.763C158.712 101.949 156.648 97.3399 156.745 93.3744L156.797 91.1614L151.216 90.0806C148.141 89.5075 144.912 88.9771 144.018 88.9073L142.392 88.7699L142.015 90.9784C141.249 95.4658 138.72 98.8222 134.529 100.851C129.472 103.334 123.471 102.491 118.918 98.705C116.56 96.7533 115.39 95.2018 114.468 92.8603C114.092 91.9658 113.761 91.1807 113.707 91.1416C113.331 90.8677 100.862 95.515 100.456 96.0725C100.363 96.1992 100.464 96.738 100.727 97.279C101.978 100.015 102.044 105.109 100.885 107.601L100.465 108.459L100.734 107.414C100.948 106.444 100.792 106.602 98.9995 109.06C96.3862 112.588 94.0729 114.239 89.9683 115.36C88.7969 115.67 87.7967 116.028 87.7765 116.168C87.6353 116.531 84.6408 116.016 82.7707 115.313C81.7995 114.954 80.2482 114.095 79.336 113.43L77.6726 112.217L75.7935 114.456C73.5365 117.157 71.4977 119.784 70.5352 121.217L69.8314 122.295L71.5902 123.772C72.831 124.831 73.7194 125.867 74.5471 127.325C76.3617 130.472 77.3357 135.955 76.1441 136.406C75.926 136.48 75.9158 136.55 76.1775 136.586C77.0533 136.681 75.8681 139.659 73.762 142.548C71.8591 145.158 71.6022 145.397 69.615 146.432C67.0537 147.747 63.0735 148.416 60.6931 147.961C59.7738 147.756 58.935 147.61 58.8629 147.597C58.3747 147.59 56.7162 159.615 56.9074 161.889L56.9839 162.798L58.544 163.082C66.1365 164.504 71.8233 172.259 70.6515 179.671C69.9013 184.364 67.2511 187.942 63.025 189.906L60.9757 190.857L62.0254 193.757C62.6165 195.314 63.8206 198.171 64.6967 200.013L66.2812 203.419L67.1724 203.098C69.0554 202.375 72.9379 202.179 75.2361 202.69C77.2642 203.121 78.0004 203.464 80.2827 205.011C82.5029 206.475 83.1803 207.124 84.2965 208.636C87.8312 213.426 88.1115 219.917 84.9386 224.551C83.9678 225.939 83.882 226.225 84.2726 226.704C85.9606 228.672 98.0791 237.469 100.791 238.709C101.68 239.124 101.68 239.124 103.487 236.871C106.417 233.303 109.934 231.636 114.391 231.665C117.854 231.706 119.743 232.384 123.169 234.843C125.932 236.858 126.19 237.124 127.326 239.117C128.7 241.515 129.589 244.918 129.417 247.239L129.275 248.843L131.396 249.147C134.211 249.569 141.962 250.097 142.697 249.935C143.187 249.826 143.344 249.553 143.396 248.581C143.451 247.885 143.798 246.508 144.193 245.515C145.967 240.715 150.186 237.465 155.369 236.781C157.48 236.535 158.681 236.634 157.707 237.011C157.471 237.11 157.479 237.155 157.768 237.21C158.003 237.226 158.212 237.108 158.224 236.922C158.268 236.411 161.845 237.311 164.016 238.39C166.368 239.561 169.025 242.003 170.124 244.046L170.774 245.296L174.032 243.984C177.053 242.772 183.295 239.677 183.226 239.433C183.191 239.369 182.884 238.718 182.553 237.933C181.695 236.066 181.07 233.204 181.14 231.586C181.217 230.128 181.45 229.639 183.693 226.112C185.98 222.58 188.205 220.825 192.087 219.503C194.532 218.685 194.624 218.558 192.614 218.723L190.695 218.876L192.789 218.54C196.279 217.98 200.632 218.941 203.288 220.878L204.442 221.719L206.511 218.881C207.656 217.31 209.517 214.475 210.65 212.584L212.693 209.106L211.136 207.972C206.763 204.783 204.462 199.147 205.386 193.766C205.714 191.793 206.024 191.087 207.477 188.926C208.829 186.846 209.472 186.189 210.953 185.173C213.11 183.679 216.708 182.577 218.894 182.735C219.761 182.785 220.539 182.732 220.65 182.58C220.964 182.149 221.236 178.621 221.321 174.22L221.375 170.145L218.976 169.716C210.841 168.248 205.347 160.905 206.534 153.077C206.9 150.433 206.937 150.383 209.136 147.367C211.187 144.555 211.517 144.214 213.213 143.354L215.027 142.387L215.213 145.006C215.532 149.585 216.808 158.317 217.718 162.085L218.558 165.724L221.184 165.504C224.444 165.203 229.413 166.109 232.628 167.561C234.397 168.346 235.74 169.209 237.804 170.831C242.682 174.736 245.417 179.214 246.511 185.096C247.639 191.157 246.652 195.949 243.135 201.224C241.339 203.912 240.723 204.588 238.902 206.016C237.73 206.947 236.795 207.779 236.82 207.913C237.012 208.946 246.604 221.489 249.364 224.355L250.192 225.192L251.765 224.049C254.261 222.259 257.352 221.176 261.294 220.673C275.511 218.814 288.537 230.367 288.336 244.619C288.297 247.153 287.544 250.834 286.607 253.022C286.242 253.804 286.277 253.869 287.622 254.616C292.707 257.392 299.847 260.618 305.773 262.804C308.983 263.981 318.846 267.136 318.938 267.009C318.938 267.009 319.263 265.887 319.645 264.574C320.467 261.643 323.582 256.695 325.791 254.735C332.336 249.028 341.093 247.612 349.588 250.895C352.457 251.977 357.044 255.322 359.131 257.814C361.813 261.011 364.473 266.832 364.592 269.712L364.656 270.807L371.172 269.93C374.742 269.429 379.62 268.6 382.043 268.038L386.381 267.048L385.972 264.227C384.415 253.118 391.767 242.528 402.673 240.194C407.536 239.16 413.186 239.865 418.016 242.144C420.431 243.284 421.853 244.321 425.788 247.772C426.342 248.253 426.605 248.174 428.014 247.144C432.083 244.211 441.166 236.319 442.366 234.672C442.496 234.494 442.34 234.032 442.011 233.637ZM449.403 197.461C448.711 197.733 448.049 197.909 447.995 197.87C447.458 197.479 454.322 195.73 455.521 195.945C455.972 196.002 455.073 196.278 453.541 196.519C451.982 196.741 450.14 197.183 449.403 197.461ZM376.962 173.053C370.417 179.381 362.601 183.113 353.532 184.224C336.779 186.292 320.204 178.592 310.574 164.353C299.902 148.5 300.748 128.121 312.706 114.368C330.234 94.1599 363.241 96.569 380.003 119.23C389.173 131.62 391.19 148.072 385.165 161.182C384.567 162.453 383.977 163.77 383.828 164.088C383.217 165.544 378.853 171.249 376.962 173.053ZM188.043 220.202C187.462 220.322 188.367 219.701 189.011 219.55C189.719 219.368 189.719 219.368 188.981 219.761C188.561 219.998 188.133 220.191 188.043 220.202ZM181.594 228.54C181.675 227.978 181.902 227.329 182.049 227.126C182.197 226.924 182.219 227.289 182.055 227.907C181.689 229.425 181.329 229.861 181.594 228.54ZM185.427 222.099C185.402 221.964 185.542 221.716 185.751 221.598C185.98 221.454 186.005 221.588 185.802 221.867C185.625 222.165 185.434 222.259 185.427 222.099ZM182.286 226.407C182.261 226.272 182.401 226.024 182.611 225.905C182.839 225.761 182.864 225.896 182.661 226.175C182.484 226.473 182.293 226.567 182.286 226.407ZM183.266 224.443C183.397 224.15 183.693 223.745 183.913 223.556C184.178 223.361 184.084 223.603 183.733 224.085C183.382 224.566 183.18 224.73 183.266 224.443ZM230.48 135.452C230.611 135.159 230.906 134.754 231.126 134.565C231.391 134.37 231.297 134.612 230.946 135.093C230.595 135.575 230.394 135.738 230.48 135.452ZM228.51 137.082C228.485 136.947 228.625 136.7 228.834 136.581C229.063 136.437 229.088 136.572 228.885 136.85C228.708 137.149 228.517 137.242 228.51 137.082ZM160.436 185.87C160.623 185.502 161.029 184.944 161.36 184.603C161.709 184.237 161.559 184.555 161.061 185.239C160.543 185.949 160.268 186.214 160.436 185.87ZM158.611 187.528C158.957 186.771 158.838 186.879 158.161 187.976C157.55 188.928 156.713 189.793 155.726 190.47C154.904 191.035 154.338 191.36 154.459 191.137C154.562 190.94 153.378 191.436 151.784 192.214C150.189 192.992 148.333 193.734 147.689 193.886C146.283 194.18 145.898 194.482 146.947 194.509C147.526 194.504 147.462 194.535 146.727 194.698C146.21 194.787 145.794 194.794 145.769 194.659C145.744 194.524 144.677 194.523 143.427 194.659C133.546 195.644 123.518 190.855 117.805 182.459C112.402 174.484 111.561 163.858 115.8 156.354C116.776 154.62 116.767 154.575 115.931 155.44C115.418 155.92 115.974 155.044 117.129 153.403C118.552 151.452 119.123 150.782 118.914 151.406C118.669 152.081 118.862 151.872 119.576 150.724C120.206 149.747 120.473 149.437 120.33 149.915C120.092 150.635 120.138 150.629 120.982 149.809C121.496 149.33 122.166 148.693 122.505 148.397C122.817 148.081 122.581 148.18 121.96 148.581C120.983 149.188 120.911 149.174 121.48 148.619C122.324 147.799 125.448 145.769 125.498 146.038C125.515 146.128 125.03 146.512 124.427 146.887C123.816 147.218 123.331 147.602 123.348 147.691C123.346 147.807 124.13 147.408 125.025 146.857C125.938 146.281 127.559 145.523 128.605 145.159C129.695 144.79 130.525 144.386 130.526 144.271C130.483 144.161 129.775 144.344 128.91 144.684C127.318 145.346 126.521 145.425 127.823 144.822C129.144 144.194 130.651 143.818 130.719 144.062C130.759 144.402 132.29 144.276 132.53 143.946C132.641 143.794 132.299 143.7 131.773 143.744C130.896 143.764 130.914 143.739 131.966 143.535C132.619 143.429 133.153 143.43 133.151 143.545C133.226 143.949 134.777 143.683 134.792 143.267C134.804 143.082 134.868 143.05 134.973 143.244C135.06 143.463 136.225 143.613 137.545 143.605C138.865 143.598 141.258 143.867 142.826 144.196C158.42 147.493 168.305 163.354 163.92 178.048C163.434 179.673 162.709 181.512 162.284 182.095L161.525 183.249L162.425 182.353C162.912 181.854 162.161 183.053 160.739 185.004C159.224 187.082 158.33 188.138 158.611 187.528ZM163.363 180.786C163.338 180.651 163.477 180.403 163.687 180.285C163.915 180.14 163.94 180.275 163.737 180.554C163.561 180.852 163.369 180.946 163.363 180.786ZM163.833 179.576C163.808 179.442 163.948 179.194 164.157 179.075C164.386 178.931 164.411 179.066 164.208 179.345C164.031 179.643 163.84 179.736 163.833 179.576ZM164.898 176.2C164.912 175.899 164.981 175.523 165.091 175.371C165.184 175.244 165.281 175.393 165.267 175.693C165.254 175.994 165.166 176.396 165.074 176.522C164.963 176.674 164.884 176.5 164.898 176.2ZM152.621 192.475C151.975 192.741 151.538 192.889 151.649 192.737C151.742 192.61 152.344 192.235 152.99 191.968C153.637 191.702 154.054 191.58 153.962 191.706C153.851 191.858 153.267 192.209 152.621 192.475ZM148.09 194.294C147.772 194.335 148.338 194.01 149.338 193.652C150.33 193.25 151.211 193 151.265 193.039C151.453 193.176 148.668 194.289 148.09 194.294ZM165.701 169.8C165.648 169.761 165.581 169.402 165.559 169.037C165.506 168.377 165.552 168.371 165.741 169.014C165.93 169.656 165.916 169.957 165.701 169.8ZM165.579 167.77C165.525 167.731 165.366 166.878 165.228 165.884L164.949 164.012L165.364 165.867C165.745 167.542 165.793 167.927 165.579 167.77ZM143.534 195.358C142.555 195.46 141.777 195.513 141.832 195.437C141.888 195.361 142.74 195.206 143.718 195.104C144.697 195.003 145.475 194.949 145.42 195.025C145.364 195.101 144.512 195.256 143.534 195.358ZM140.701 195.466C140.032 195.483 140.024 195.438 140.65 195.312C141.022 195.196 141.385 195.149 141.438 195.188C141.653 195.345 141.371 195.45 140.701 195.466ZM123.096 189.461C122.65 189.058 123.009 189.242 123.894 189.888C124.78 190.533 125.145 190.877 124.706 190.635C124.267 190.392 123.542 189.864 123.096 189.461ZM138.158 143.159C137.488 143.176 137.48 143.131 138.106 143.005C138.478 142.889 138.841 142.842 138.894 142.882C139.109 143.038 138.827 143.143 138.158 143.159ZM136.376 143.18C135.896 143.218 135.544 143.194 135.599 143.118C135.655 143.042 136.081 142.965 136.561 142.926C137.041 142.888 137.393 142.912 137.337 142.988C137.282 143.064 136.856 143.142 136.376 143.18ZM125.992 145.699C125.967 145.565 126.195 145.421 126.512 145.38C126.947 145.348 126.955 145.393 126.536 145.63C126.27 145.825 126.017 145.834 125.992 145.699ZM113.868 159.059C113.843 158.924 113.983 158.677 114.192 158.558C114.421 158.414 114.446 158.549 114.243 158.828C114.066 159.126 113.875 159.219 113.868 159.059ZM114.386 157.729C114.462 157.513 114.72 157.158 114.94 156.969C115.205 156.774 115.148 156.965 114.853 157.371C114.539 157.802 114.356 157.94 114.386 157.729ZM98.2727 111.635C98.607 111.063 99.2721 110.151 99.7507 109.608C100.248 109.038 99.9874 109.508 99.1745 110.623C98.3616 111.738 97.9569 112.181 98.2727 111.635ZM93.6696 115.187C92.9614 115.369 92.9614 115.369 93.6999 114.976C94.6482 114.464 94.8748 114.435 94.6531 114.739C94.5422 114.891 94.1142 115.084 93.6696 115.187ZM89.4474 116.3C87.038 116.561 87.9762 116.12 90.5585 115.79C91.9445 115.636 92.5501 115.651 91.9326 115.822C91.2966 116.018 90.1991 116.227 89.4474 116.3Z" fill="black"/>
<path d="M369.833 109.564C368.653 108.703 368.16 108.421 368.767 108.942C369.347 109.442 370.313 110.146 370.913 110.506C371.486 110.847 371.014 110.425 369.833 109.564Z" fill="black"/>
<path d="M321.798 175.447C320.779 174.704 320.34 174.461 320.866 174.922C321.366 175.364 322.224 175.99 322.744 176.292C323.237 176.574 322.845 176.21 321.798 175.447Z" fill="black"/>
<path d="M157.137 188.704C156.927 188.823 156.788 189.071 156.813 189.205C156.819 189.365 157.011 189.272 157.187 188.974C157.39 188.695 157.365 188.56 157.137 188.704Z" fill="black"/>
<path d="M156.13 189.522C155.92 189.641 155.78 189.889 155.806 190.023C155.812 190.183 156.003 190.09 156.18 189.792C156.383 189.513 156.358 189.378 156.13 189.522Z" fill="black"/>
<path d="M117.804 153.041C117.594 153.16 117.455 153.408 117.48 153.542C117.486 153.702 117.678 153.609 117.854 153.311C118.057 153.032 118.032 152.897 117.804 153.041Z" fill="black"/>
<path d="M436.695 211.171C436.835 210.303 436.8 210.238 436.546 210.868C436.216 211.715 436.055 212.838 436.332 212.458C436.424 212.332 436.596 211.758 436.695 211.171Z" fill="black"/>
<path d="M438.057 207.894C438.368 207.073 438.341 207.054 437.934 207.611C437.676 207.966 437.321 208.678 437.133 209.161C436.822 209.983 436.849 210.002 437.255 209.445C437.514 209.09 437.85 208.404 438.057 207.894Z" fill="black"/>
<path d="M441.97 202.132C441.75 202.321 441.492 202.676 441.416 202.892C441.386 203.103 441.569 202.965 441.883 202.534C442.178 202.129 442.235 201.937 441.97 202.132Z" fill="black"/>
<path d="M440.316 203.837C439.948 204.229 439.394 204.989 439.115 205.484C438.855 205.954 439.168 205.639 439.833 204.726C440.498 203.814 440.703 203.42 440.316 203.837Z" fill="black"/>
<path d="M388.061 253.021C388.036 252.886 388.854 251.426 389.911 249.751L391.784 246.731L390.094 248.992C389.144 250.24 388.159 251.928 387.83 252.775C387.527 253.641 387.475 254.107 387.697 253.803C387.927 253.544 388.068 253.181 388.061 253.021Z" fill="black"/>
<path d="M463.772 136.722C463.563 136.841 463.423 137.089 463.448 137.223C463.455 137.383 463.646 137.29 463.823 136.992C464.026 136.713 464.001 136.578 463.772 136.722Z" fill="black"/>
<path d="M462.58 137.794C462.305 138.059 461.936 138.565 461.749 138.934C461.581 139.277 461.82 139.063 462.282 138.43C462.743 137.796 462.874 137.503 462.58 137.794Z" fill="black"/>
<path d="M340.445 270.425C339.757 270.467 339.114 270.503 338.978 270.52C338.842 270.538 338.109 270.585 337.349 270.613C335.775 270.63 335.763 270.815 337.325 270.984C338.815 271.139 340.273 270.999 341.02 270.651C341.576 270.396 341.477 270.362 340.445 270.425Z" fill="black"/>
<path d="M303.423 296.912C303.213 297.031 303.074 297.279 303.099 297.413C303.105 297.573 303.297 297.48 303.473 297.182C303.676 296.903 303.651 296.768 303.423 296.912Z" fill="black"/>
<path d="M207.864 189.014C207.644 189.203 207.349 189.608 207.218 189.901C207.132 190.188 207.334 190.024 207.685 189.543C208.036 189.062 208.13 188.82 207.864 189.014Z" fill="black"/>
<path d="M316.044 28.2386C315.834 28.3573 315.695 28.6049 315.72 28.7396C315.726 28.8997 315.918 28.8063 316.094 28.508C316.297 28.2293 316.272 28.0946 316.044 28.2386Z" fill="black"/>
<path d="M155.137 237.155C153.308 237.296 150.834 238.21 149.626 239.191C149.26 239.468 150.069 239.204 151.416 238.595C152.764 237.986 154.555 237.39 155.407 237.235C156.957 236.969 156.957 236.969 155.137 237.155Z" fill="black"/>
<path d="M259.337 69.9464C259.062 70.2113 258.729 70.6674 258.598 70.96C258.512 71.2469 258.751 71.0327 259.131 70.4556C259.537 69.8981 259.631 69.6562 259.337 69.9464Z" fill="black"/>
<path d="M256.935 73.2406C256.66 73.5054 256.29 74.0122 256.104 74.3808C255.936 74.7241 256.175 74.51 256.636 73.8765C257.098 73.243 257.229 72.9504 256.935 73.2406Z" fill="black"/>
<path d="M260.177 68.2304C260.013 68.3433 259.791 68.6474 259.715 68.8639C259.685 69.0748 259.831 68.9873 260.09 68.6325C260.349 68.2778 260.387 68.1119 260.177 68.2304Z" fill="black"/>
<path d="M255.189 75.0721C255.024 75.185 254.803 75.489 254.727 75.7056C254.697 75.9165 254.843 75.829 255.102 75.4742C255.36 75.1195 255.399 74.9536 255.189 75.0721Z" fill="black"/>
<path d="M253.602 76.5155C253.265 76.6964 252.862 77.0236 252.714 77.2263C252.548 77.4544 252.674 77.5073 253.048 77.2757C253.385 77.0948 253.788 76.7676 253.936 76.5648C254.102 76.3368 253.977 76.2839 253.602 76.5155Z" fill="black"/>
<path d="M249.569 78.8916C248.367 79.4126 246.603 80.0283 245.669 80.2395C244.752 80.4253 243.989 80.6836 244.006 80.7734C244.097 81.2673 251.07 78.861 251.588 78.1515C251.653 78.0052 250.762 78.3257 249.569 78.8916Z" fill="black"/>
<path d="M134.001 100.504C132.845 101.02 131.091 101.565 130.103 101.737L128.371 102.027L130.218 101.86C131.839 101.722 135.55 100.353 135.975 99.7699C136.067 99.6432 135.176 99.9638 134.001 100.504Z" fill="black"/>
<path d="M75.4002 139.512C75.6338 139.022 74.7219 140.104 73.4286 141.878C72.1354 143.651 71.3476 144.901 71.695 144.65C72.4455 144.072 74.9396 140.651 75.4002 139.512Z" fill="black"/>
</g>
<defs>
<clipPath id="clip0">
<rect width="376" height="425" fill="white" transform="translate(564.929 131.381) rotate(126.095)"/>
</clipPath>
</defs>
</svg>
