<svg width="376" height="419" viewBox="0 0 376 419" fill="none" xmlns="http://www.w3.org/2000/svg">
<path d="M272.357 19.4902C269.064 19.7891 269.064 19.7891 269.064 21.5156C269.033 29.0859 259.28 32.5723 254.263 26.8281L253.071 25.4336L251.722 26.2305C250.029 27.2266 246.799 29.5176 246.799 29.75C246.799 29.8496 247.113 30.5469 247.489 31.3105C248.304 32.9707 248.43 36.291 247.771 38.3164C247.238 39.9766 245.168 42.334 243.506 43.2305C241.593 44.293 238.489 44.4258 236.607 43.5293C234.82 42.6992 235.29 42.2676 232.781 47.1152C231.872 48.875 231.119 50.5352 231.119 50.834C231.119 51.1328 231.433 51.498 231.841 51.6973C233.189 52.3613 234.6 53.8887 235.415 55.582C236.544 57.873 236.607 61.1934 235.541 63.4844C234.255 66.3398 230.837 68.7305 228.077 68.7305C227.419 68.7305 227.356 68.8633 227.356 70.3574C227.356 71.2539 227.293 72.2168 227.168 72.4824C227.043 72.8145 227.356 73.0137 228.297 73.1797C232.656 73.9102 235.478 77.4629 235.51 82.2109C235.51 85.6641 234.287 87.9883 231.464 89.9805L230.774 90.4785L232.499 94.0645C234.757 98.8125 234.632 98.6797 236.105 97.8828C240.151 95.7578 245.451 97.75 247.458 102.199C248.555 104.523 248.492 107.811 247.332 110.168L246.485 111.961L247.175 112.559C247.583 112.891 249.214 114.02 250.844 115.049C253.322 116.643 253.855 116.842 254.074 116.41C255.172 114.318 258.245 112.193 260.095 112.26C260.942 112.293 260.973 112.326 260.378 112.492C259.845 112.658 260.346 112.924 262.416 113.488C263.921 113.92 265.709 114.484 266.399 114.717L267.653 115.182L266.555 114.186C265.96 113.621 265.771 113.322 266.148 113.521C268.061 114.551 270.005 118.27 270.005 120.859C270.005 122.088 270.036 122.088 271.448 122.32C272.263 122.42 274.019 122.52 275.367 122.52C277.751 122.52 277.845 122.486 277.845 121.756C277.845 120.162 278.817 117.639 279.946 116.244C281.106 114.783 283.74 113.223 284.901 113.256C285.246 113.256 284.963 113.455 284.274 113.688C283.552 113.92 282.706 114.285 282.392 114.484C281.828 114.85 281.828 114.883 282.549 114.717C282.988 114.617 284.242 114.318 285.371 114.086C287.253 113.654 287.347 113.588 286.625 113.256C285.936 112.924 286.03 112.924 287.253 113.09C290.138 113.455 292.552 115.248 294.309 118.336C294.591 118.801 294.998 118.668 298.072 117.041C302.901 114.451 302.87 114.484 302.211 113.09C299.608 107.279 303.936 100.24 310.082 100.273C310.929 100.273 312.372 100.639 313.438 101.104C314.849 101.734 315.351 101.834 315.539 101.502C315.664 101.303 316.637 99.709 317.64 98.0156L319.522 94.9277L317.828 93.2012C315.351 90.6445 314.63 87.6562 315.633 84.1367C316.542 80.916 319.553 78.3262 322.94 77.8281C324.445 77.6289 324.508 77.5625 324.696 76.4004C324.947 74.8398 324.947 67.5684 324.696 65.6758L324.508 64.1816L322.375 64.0156C317.703 63.6504 314.535 59.9316 314.535 54.8184C314.535 51.8301 316.292 48.709 318.769 47.248C319.239 46.9492 319.177 46.7168 318.299 45.1562C317.765 44.1934 316.762 42.5332 316.103 41.4707L314.849 39.5449L313.375 40.2422C311.337 41.2051 308.64 41.2051 306.476 40.1758C304.689 39.3789 302.462 37.0879 302.744 36.3242C302.838 36.0918 302.744 35.8926 302.556 35.959C302.086 36.0586 301.427 33.7344 301.396 31.875C301.396 31.0449 301.584 29.7832 301.835 29.0527C302.086 28.3223 302.305 27.625 302.305 27.5254C302.305 27.4258 300.675 26.4629 298.699 25.3672C295.281 23.541 295.061 23.4414 294.716 24.0391C293.525 26.1973 290.483 28.5879 288.946 28.5215C288.382 28.5215 288.382 28.4883 288.977 28.2227C289.542 27.957 289.511 27.9238 288.727 27.9238C287.692 27.8906 283.082 26.7285 281.922 26.1973L281.138 25.832L281.765 26.6289C282.11 27.0273 281.828 26.8613 281.169 26.2305C279.82 24.9355 278.88 22.9766 278.535 20.8184L278.315 19.4238L275.963 19.3906C274.678 19.3574 273.047 19.4238 272.357 19.4902ZM284.085 28.0898C284.524 28.4883 283.49 28.123 282.988 27.6914C282.423 27.2266 282.423 27.2266 283.176 27.5918C283.615 27.791 284.023 28.0234 284.085 28.0898ZM285.277 28.4219C285.183 28.5215 284.901 28.5547 284.681 28.4551C284.43 28.3555 284.524 28.2559 284.869 28.2559C285.214 28.2227 285.402 28.3223 285.277 28.4219ZM287.817 28.7871C287.504 28.8535 286.939 28.8535 286.563 28.7871C286.155 28.7207 286.406 28.6543 287.096 28.6543C287.786 28.6211 288.099 28.6875 287.817 28.7871ZM282.078 57.209C294.748 63.584 292.113 83.1074 278.19 86.0293C274.489 86.793 269.535 85.2324 266.681 82.4434C260.597 76.4336 260.315 66.4395 266.054 60.3633C269.221 57.043 272.326 55.748 276.81 55.9141C279.35 56.0137 279.977 56.1465 282.078 57.209Z" fill="black"/>
<path d="M263.419 28.5547C262.636 28.9199 262.196 29.1855 262.416 29.1855C262.918 29.2187 264.987 28.3223 264.987 28.0898C264.987 27.957 264.956 27.8906 264.925 27.9238C264.862 27.957 264.203 28.2226 263.419 28.5547Z" fill="black"/>
<path d="M303.34 37.2207C303.622 37.6856 304.25 38.3496 304.72 38.7149C305.598 39.3789 306.664 40.0762 306.382 39.7774C304.344 37.7188 302.932 36.5234 303.34 37.2207Z" fill="black"/>
<path d="M155.041 39.0801C154.508 41.7363 153.85 43.6953 152.877 45.6543C151.686 48.1113 149.961 50.5352 149.616 50.3027C149.459 50.2363 149.02 50.5352 148.612 51C147.609 52.1621 145.226 53.9883 143.219 55.1504C142.341 55.6816 141.713 56.1133 141.87 56.1133C142.529 56.1133 145.853 53.9219 147.703 52.2617L149.741 50.4023L147.734 52.4609C145.477 54.7188 141.933 56.7441 138.609 57.6738C134.658 58.8027 129.076 58.4043 125.03 56.7109C123.494 56.0801 124.309 56.1465 126.19 56.8105C128.887 57.7402 129.42 57.5742 126.849 56.5781C123.494 55.3164 123.431 55.3164 123.682 55.7148C123.839 55.9805 123.713 56.0469 123.399 55.8809C123.055 55.748 122.992 55.6152 123.243 55.4492C123.431 55.3164 122.804 54.7188 121.706 53.9883C120.671 53.3242 119.072 52.0293 118.131 51.1328C117.19 50.2363 116.344 49.5723 116.25 49.6719C115.748 50.2031 112.298 43.3965 111.796 40.9062C111.64 40.1094 111.452 39.8438 111.075 39.9766C110.762 40.043 109.476 40.375 108.19 40.6738C103.11 41.9023 96.9007 44.0273 89.6253 47.082L88.81 47.4473L89.4372 49.5391C90.4407 52.6934 90.4093 59.0352 89.4058 62.4219C87.1166 70.291 82.005 75.8691 74.7923 78.4258C72.9107 79.0898 71.97 79.1895 68.2068 79.1895C64.8514 79.1895 63.3775 79.0234 61.9349 78.5586C59.3007 77.6953 55.4749 75.5703 53.7815 73.9766L52.3389 72.6484L50.5514 74.4082C48.0113 76.9648 43.7464 81.7793 41.1122 85.1328L38.823 88.0215L41.2063 90.6777C45.9102 95.957 48.0113 102.93 47.0392 109.936C45.5026 121.191 36.8787 129.525 26.1851 130.057C24.3036 130.156 22.2966 130.057 21.1676 129.824C18.063 129.16 18.1885 129.094 17.5299 131.318C15.962 136.498 13.171 150.045 13.171 152.535C13.171 152.9 13.4532 153.066 14.0804 153.066C14.6135 153.066 16.1187 153.432 17.4672 153.896C23.7391 155.988 28.9761 161.168 31.4849 167.676C32.7079 170.797 33.0215 173.188 32.8647 177.537C32.7393 180.824 32.5511 181.887 31.7671 184.145C30.1051 188.859 27.4082 192.611 23.5823 195.467C21.4812 197.061 18.1571 198.688 16.2128 199.053C15.5856 199.186 15.0525 199.352 15.0525 199.451C15.0525 199.617 16.5891 206.059 17.279 208.781C17.624 210.109 17.7181 210.209 18.4707 210.043C18.9097 209.91 20.4777 209.744 21.9516 209.645C28.004 209.18 33.9936 211.504 38.6348 216.086C47.3841 224.719 47.7604 239.594 39.4816 249.156L37.7254 251.182L39.4502 253.506C41.8649 256.727 47.4469 263.301 50.3006 266.289L52.6839 268.746L54.4714 266.887C55.4749 265.857 56.9801 264.562 57.8582 263.998C59.583 262.836 63.9733 260.977 64.82 261.01C65.3217 261.01 65.3217 261.076 64.7573 261.342C64.3182 261.574 64.475 261.574 65.3845 261.441C66.0744 261.309 67.7678 261.109 69.1476 260.943L71.6564 260.678L68.5204 260.777C66.7956 260.844 65.7294 260.744 66.1685 260.611C66.6075 260.479 68.2382 260.379 69.7748 260.346C79.9353 260.246 88.7786 267.451 91.2874 277.844C92.1655 281.529 92.1027 286.676 91.1306 290.063C90.7543 291.523 90.3152 292.951 90.1898 293.25C89.9076 293.914 90.2525 294.08 96.1167 296.338C99.9112 297.799 107.877 300.223 110.26 300.621L111.514 300.854L112.079 298.928C113.145 295.342 114.776 292.52 117.441 289.664C119.699 287.24 123.682 284.219 124.058 284.65C124.152 284.717 123.619 285.148 122.866 285.547C121.048 286.543 118.915 288.236 117.598 289.73C116.563 290.859 116.626 290.859 118.319 289.432C121.016 287.107 123.462 285.547 125.908 284.518C128.229 283.521 128.323 283.189 126.065 284.053C125.312 284.318 124.654 284.484 124.56 284.418C124.497 284.318 125.406 283.953 126.598 283.521C128.041 283.057 129.86 282.758 132.243 282.658C136.539 282.426 139.361 283.023 142.874 284.883C145.727 286.344 149.083 289.033 148.769 289.598C148.644 289.797 148.675 289.863 148.895 289.73C149.365 289.432 151.937 293.084 153.191 295.906C153.787 297.234 154.508 299.326 154.79 300.521L155.292 302.68L157.832 302.281C163.038 301.484 174.296 298.695 174.86 298.064C174.954 297.998 174.86 297.533 174.704 297.068C174.014 295.143 173.7 290.959 174.045 288.037C174.704 282.525 176.836 277.877 180.474 274.059C184.55 269.775 189.348 267.617 195.056 267.451C198.004 267.385 198.098 267.385 195.997 267.584L193.645 267.816L195.589 267.883C197.565 267.949 200.889 268.713 204.37 269.875C206.627 270.639 206.784 270.34 204.62 269.443C203.805 269.145 203.241 268.812 203.335 268.713C203.397 268.613 204.526 269.078 205.781 269.709C208.352 271.037 211.206 273.361 212.993 275.619L214.185 277.146L212.617 280.035C211.018 282.99 208.07 289.498 208.29 289.664C208.321 289.73 209.136 290.195 210.046 290.693C212.272 291.955 214.624 294.711 215.847 297.4C216.788 299.525 216.851 299.857 216.851 303.477C216.851 307.096 216.788 307.428 215.847 309.553C213.683 314.367 209.356 317.621 204.62 317.986L202.269 318.186V321.738V325.291L204.181 325.523C211.018 326.254 216.694 333.891 215.941 341.361C215.534 345.578 213.025 349.961 209.763 352.219L207.945 353.48L210.359 358.627C211.708 361.449 213.182 364.371 213.652 365.135L214.499 366.529L216.506 365.533C220.582 363.508 224.785 363.574 228.893 365.766C233.879 368.389 236.733 373.734 236.356 379.645C236.168 382.699 235.604 384.559 234.255 386.684C233.753 387.514 233.314 388.244 233.314 388.311C233.314 388.775 244.416 396.113 245.106 396.113C245.262 396.113 245.639 395.715 245.921 395.184C247.395 392.561 251.472 389.506 254.168 388.975L255.109 388.809L254.106 389.207C253.196 389.605 253.416 389.639 256.458 389.639C260.848 389.672 263.545 390.568 266.869 393.225C267.81 393.988 268.688 394.586 268.813 394.52C269.19 394.42 270.538 397.143 271.071 399.068C271.353 400.064 271.573 401.824 271.573 402.953V405.012L274.489 405.211C278.002 405.443 281.326 405.543 283.051 405.477L284.336 405.41L284.493 403.119C284.618 401.492 284.932 400.164 285.622 398.637C287.096 395.316 290.953 391.299 292.019 391.996C292.207 392.129 292.27 392.096 292.145 391.863C291.706 391.1 294.81 390.303 298.385 390.303C301.615 390.303 301.96 390.369 303.967 391.365C306.539 392.66 309.424 395.482 310.459 397.674C310.835 398.537 311.211 399.301 311.243 399.367C311.525 399.766 322.218 394.021 323.943 392.527L324.633 391.93L323.943 390.502C320.619 383.529 323.536 374.365 330.215 370.945C334.449 368.787 338.902 368.82 342.978 371.078L344.954 372.174L346.679 369.617C347.588 368.223 349.188 365.566 350.16 363.773L351.979 360.486L351.195 359.955C349.501 358.859 347.055 355.838 346.114 353.68C345.268 351.787 345.111 350.99 345.017 348.234C344.891 345.578 345.017 344.648 345.581 342.855C347.369 337.178 352.449 333.127 358.062 332.961C359.756 332.928 360.038 332.828 360.195 332.23C360.791 329.707 360.759 314.732 360.163 311.811C359.975 310.848 359.975 310.848 357.09 310.715C352.48 310.449 349.062 308.59 346.459 304.971C344.452 302.148 343.888 300.223 343.857 296.006C343.857 292.586 343.919 292.221 344.86 290.129C345.989 287.605 348.215 284.883 350.191 283.654L351.571 282.824L350.567 280.932C349.25 278.408 345.111 271.834 344.546 271.336C344.17 271.004 343.857 271.037 343.041 271.568C342.445 271.934 341.128 272.465 340.093 272.73C335.17 274.125 330.058 272.631 326.452 268.846C325.009 267.285 324.382 266.256 325.26 266.82C325.48 266.953 325.511 266.92 325.386 266.654C325.26 266.455 325.041 266.355 324.884 266.455C324.445 266.721 323.065 263.301 322.658 260.91C322.218 258.32 322.626 254.734 323.63 252.643L324.257 251.381L321.278 249.521C318.518 247.795 312.34 244.574 312.183 244.773C312.152 244.84 311.807 245.471 311.368 246.201C310.365 247.994 308.42 250.186 307.072 251.082C305.849 251.879 305.316 251.979 301.145 252.244C296.943 252.477 294.214 251.713 290.859 249.355C288.758 247.861 288.601 247.861 289.918 249.389L291.173 250.85L289.667 249.355C287.159 246.865 285.371 242.781 285.371 239.494V238.066H281.859C279.915 238.066 276.528 238.232 274.333 238.432L270.319 238.83V240.756C270.319 246.168 267.12 251.348 262.228 253.771C260.44 254.668 259.688 254.834 257.085 254.934C254.607 255.066 253.698 254.934 252.005 254.336C249.527 253.473 246.517 251.215 245.356 249.355C244.886 248.625 244.384 248.027 244.196 248.027C243.663 248.027 240.653 249.887 237.046 252.41L233.722 254.768L234.788 256.959C238.395 264.396 235.698 273.162 228.673 276.814C226.321 278.076 226.259 278.076 222.527 278.076C219.046 278.076 218.575 278.01 216.882 277.146L215.032 276.25L217.039 274.557C220.551 271.602 226.854 265.426 229.363 262.471L231.809 259.648L230.084 257.656C227.921 255.199 225.725 250.65 225.004 247.197C224.596 245.305 224.502 243.711 224.596 241.088C224.879 234.846 226.886 229.998 230.994 225.648C235.227 221.166 239.68 219.141 246.015 218.875C249.245 218.742 250.154 218.842 252.381 219.473C253.823 219.871 255.047 220.137 255.141 220.037C255.862 219.273 260.346 204.133 261.036 200.215L261.224 199.053L259.374 198.455C256.458 197.492 253.761 195.633 251.032 192.744C241.154 182.352 242.816 165.02 254.451 156.785C256.52 155.324 259.939 153.764 262.259 153.232C263.106 153.066 263.137 153 262.949 151.473C262.196 145.729 260.597 138.059 258.872 131.982C257.932 128.695 254.67 118.867 254.513 118.867C254.513 118.867 253.416 119.266 252.13 119.73C249.276 120.793 243.443 121.191 240.558 120.561C232.091 118.635 225.788 112.393 223.436 103.594C222.621 100.639 222.621 94.9609 223.405 91.8066C224.408 87.7559 227.544 82.1777 229.802 80.3848L230.649 79.6875L226.102 74.9395C223.593 72.3496 220.049 68.8965 218.168 67.2695L214.812 64.3477L212.774 66.3398C204.715 74.1426 191.826 74.4414 183.516 67.0039C179.815 63.6836 177.056 58.7031 176.052 53.457C175.55 50.834 175.55 49.0742 176.021 43.8613C176.083 43.1309 175.864 42.9648 174.202 42.4336C169.435 40.873 157.707 38.1836 155.668 38.1836C155.449 38.1836 155.167 38.582 155.041 39.0801ZM121.455 54.4199C122.082 54.8184 122.615 55.25 122.615 55.3164C122.615 55.9805 117.159 51.4648 116.626 50.3691C116.406 49.9707 117.159 50.5352 118.257 51.6309C119.354 52.7598 120.797 53.9883 121.455 54.4199ZM144.41 127.334C153.379 128.895 160.999 133.012 167.24 139.686C178.78 152.004 182.324 169.934 176.491 186.104C169.968 204.066 153.003 215.389 134.846 213.828C108.19 211.57 90.6916 183.48 99.1273 156.586C103.737 141.877 115.842 130.555 129.985 127.699C131.365 127.434 132.776 127.135 133.121 127.068C134.658 126.703 141.839 126.869 144.41 127.334ZM293.807 252.211C294.246 252.609 293.211 252.244 292.709 251.812C292.145 251.348 292.145 251.348 292.897 251.713C293.336 251.912 293.744 252.145 293.807 252.211ZM304.344 252.51C303.842 252.775 303.183 252.975 302.932 252.975C302.682 252.975 302.964 252.742 303.56 252.51C305.002 251.912 305.567 251.945 304.344 252.51ZM296.88 253.207C296.786 253.307 296.504 253.34 296.284 253.24C296.033 253.141 296.127 253.041 296.472 253.041C296.817 253.008 297.005 253.107 296.88 253.207ZM302.211 253.207C302.117 253.307 301.835 253.34 301.615 253.24C301.364 253.141 301.459 253.041 301.803 253.041C302.148 253.008 302.337 253.107 302.211 253.207ZM300.047 253.572C299.734 253.639 299.232 253.639 298.95 253.572C298.636 253.473 298.887 253.406 299.483 253.406C300.079 253.406 300.33 253.473 300.047 253.572ZM200.324 267.85C200.011 267.916 199.509 267.916 199.227 267.85C198.913 267.75 199.164 267.684 199.76 267.684C200.356 267.684 200.606 267.75 200.324 267.85ZM202.802 268.48C202.708 268.58 202.425 268.613 202.206 268.514C201.955 268.414 202.049 268.314 202.394 268.314C202.739 268.281 202.927 268.381 202.802 268.48ZM282.329 294.744C281.922 294.811 281.232 294.811 280.761 294.744C280.26 294.678 280.604 294.611 281.451 294.611C282.329 294.611 282.706 294.678 282.329 294.744ZM284.744 295.242C283.929 295.408 284.085 295.441 285.371 295.342C286.5 295.275 287.692 295.441 288.821 295.84C289.761 296.172 290.357 296.438 290.106 296.471C289.887 296.504 290.984 297.168 292.552 297.998C294.12 298.828 295.814 299.891 296.316 300.322C297.382 301.285 297.852 301.418 297.256 300.555C296.911 300.09 296.974 300.123 297.539 300.621C297.915 300.986 298.166 301.318 298.072 301.418C297.978 301.518 298.605 302.381 299.452 303.311C306.068 310.715 308.107 321.639 304.689 331.201C301.427 340.266 293.336 347.205 284.775 348.201C282.8 348.434 282.768 348.467 283.96 348.633C284.65 348.766 283.615 348.832 281.608 348.865C279.193 348.865 278.315 348.799 278.942 348.6C279.632 348.4 279.35 348.367 278.002 348.467C276.841 348.533 276.434 348.5 276.904 348.334C277.625 348.102 277.594 348.068 276.434 347.869C275.744 347.736 274.834 347.57 274.395 347.471C273.956 347.404 274.176 347.537 274.866 347.803C275.932 348.234 275.963 348.301 275.179 348.168C274.019 347.969 270.538 346.641 270.726 346.441C270.789 346.375 271.385 346.541 272.043 346.807C272.671 347.105 273.266 347.271 273.329 347.205C273.423 347.139 272.639 346.74 271.667 346.342C270.664 345.943 269.096 345.08 268.186 344.449C267.245 343.785 266.43 343.354 266.336 343.42C266.273 343.52 266.838 343.984 267.622 344.482C269.096 345.379 269.629 345.977 268.374 345.279C267.089 344.582 265.897 343.586 266.054 343.387C266.305 343.154 265.301 341.992 264.893 341.992C264.705 341.992 264.831 342.324 265.176 342.723C265.709 343.42 265.677 343.42 264.893 342.689C264.423 342.225 264.109 341.793 264.203 341.727C264.486 341.428 263.357 340.332 263.012 340.564C262.855 340.664 262.792 340.631 262.886 340.432C263.012 340.232 262.447 339.203 261.663 338.141C260.879 337.078 259.688 334.986 259.029 333.525C252.506 318.982 259.5 301.65 273.956 296.537C275.556 295.973 277.469 295.475 278.19 295.475L279.57 295.408L278.315 295.209C277.625 295.109 279.036 295.01 281.451 295.01C284.023 295.01 285.402 295.109 284.744 295.242ZM276.496 295.375C276.402 295.475 276.12 295.508 275.901 295.408C275.65 295.309 275.744 295.209 276.089 295.209C276.434 295.176 276.622 295.275 276.496 295.375ZM275.242 295.707C275.148 295.807 274.866 295.84 274.646 295.74C274.395 295.641 274.489 295.541 274.834 295.541C275.179 295.508 275.367 295.607 275.242 295.707ZM271.887 296.836C271.636 297.002 271.291 297.168 271.103 297.168C270.946 297.168 271.008 297.002 271.259 296.836C271.51 296.67 271.887 296.504 272.043 296.504C272.231 296.504 272.137 296.67 271.887 296.836ZM292.27 297.168C292.866 297.533 293.242 297.799 293.054 297.799C292.897 297.799 292.239 297.533 291.643 297.168C291.047 296.803 290.702 296.537 290.859 296.537C291.047 296.537 291.674 296.803 292.27 297.168ZM296.41 299.758C296.629 299.99 296.033 299.725 295.155 299.127C294.246 298.563 293.525 297.998 293.525 297.932C293.525 297.699 296.065 299.293 296.41 299.758ZM266.242 299.957C266.242 300.023 265.991 300.289 265.709 300.521C265.207 300.953 265.176 300.92 265.583 300.389C265.991 299.857 266.242 299.691 266.242 299.957ZM264.674 301.252C264.674 301.318 264.078 301.949 263.357 302.646L262.008 303.975L263.263 302.547C264.392 301.252 264.674 300.986 264.674 301.252ZM299.953 302.813C300.612 303.543 301.114 304.141 301.019 304.141C300.925 304.141 300.298 303.543 299.64 302.813C298.981 302.082 298.479 301.484 298.573 301.484C298.668 301.484 299.295 302.082 299.953 302.813ZM301.709 305.037C302.117 305.568 302.086 305.602 301.615 305.17C301.302 304.938 301.051 304.672 301.051 304.605C301.051 304.34 301.302 304.506 301.709 305.037ZM307.229 322.801C307.166 323.398 307.103 323 307.103 321.904C307.103 320.809 307.166 320.311 307.229 320.809C307.291 321.307 307.291 322.203 307.229 322.801ZM260.942 337.908C261.35 338.439 261.318 338.473 260.848 338.041C260.534 337.809 260.284 337.543 260.284 337.477C260.284 337.211 260.534 337.377 260.942 337.908ZM262.008 339.336C262.322 339.701 262.51 340 262.416 340C262.322 340 262.008 339.701 261.695 339.336C261.381 338.971 261.193 338.672 261.287 338.672C261.381 338.672 261.695 338.971 262.008 339.336ZM270.162 346.242C270.068 346.342 269.817 346.242 269.597 346.01C269.315 345.678 269.346 345.645 269.785 345.844C270.099 345.943 270.256 346.143 270.162 346.242ZM288.099 348.168C288.005 348.268 287.723 348.301 287.504 348.201C287.253 348.102 287.347 348.002 287.692 348.002C288.037 347.969 288.225 348.068 288.099 348.168ZM286.72 348.533C286.5 348.6 286.061 348.6 285.779 348.533C285.465 348.434 285.653 348.367 286.155 348.367C286.688 348.367 286.908 348.434 286.72 348.533ZM258.966 388.709C258.308 388.775 257.179 388.775 256.458 388.709C255.705 388.643 256.238 388.576 257.618 388.576C258.998 388.576 259.594 388.643 258.966 388.709ZM264.548 390.336C265.113 390.801 265.113 390.801 264.36 390.436C263.388 389.971 263.231 389.805 263.608 389.805C263.796 389.805 264.203 390.037 264.548 390.336ZM267.935 393.092C269.566 394.885 268.657 394.387 266.869 392.494C265.928 391.465 265.583 390.967 266.085 391.365C266.618 391.764 267.433 392.527 267.935 393.092Z" fill="black"/>
<path d="M97.3084 170.498C97.3084 171.959 97.3711 172.523 97.4338 171.727C97.4966 170.963 97.4966 169.768 97.4338 169.07C97.3711 168.406 97.3084 169.037 97.3084 170.498Z" fill="black"/>
<path d="M178.843 170.498C178.843 171.76 178.906 172.258 178.968 171.561C179.031 170.896 179.031 169.834 178.968 169.236C178.906 168.672 178.843 169.203 178.843 170.498Z" fill="black"/>
<path d="M286.563 295.74C286.782 295.84 287.065 295.807 287.159 295.707C287.284 295.607 287.096 295.508 286.751 295.541C286.406 295.541 286.312 295.641 286.563 295.74Z" fill="black"/>
<path d="M287.817 296.072C288.037 296.172 288.319 296.139 288.413 296.039C288.538 295.939 288.35 295.84 288.005 295.873C287.66 295.873 287.566 295.973 287.817 296.072Z" fill="black"/>
<path d="M280.918 348.533C281.138 348.633 281.42 348.6 281.514 348.5C281.639 348.4 281.451 348.301 281.106 348.334C280.761 348.334 280.667 348.434 280.918 348.533Z" fill="black"/>
<path d="M140.02 56.6113C139.236 57.0098 139.205 57.0762 139.863 56.9101C140.741 56.6777 141.745 56.1465 141.274 56.1465C141.118 56.1465 140.553 56.3457 140.02 56.6113Z" fill="black"/>
<path d="M136.57 57.4414C135.724 57.6738 135.724 57.707 136.414 57.707C136.853 57.707 137.637 57.5742 138.138 57.4414C138.985 57.209 138.985 57.1758 138.295 57.1758C137.856 57.1758 137.104 57.3086 136.57 57.4414Z" fill="black"/>
<path d="M129.609 57.6738C129.891 57.7402 130.33 57.7402 130.549 57.6738C130.738 57.5742 130.518 57.5078 129.985 57.5078C129.483 57.5078 129.295 57.5742 129.609 57.6738Z" fill="black"/>
<path d="M131.961 58.0057C132.494 58.0723 133.435 58.0723 133.999 58.0057C134.532 57.9392 134.093 57.8726 132.964 57.8726C131.835 57.8726 131.396 57.9392 131.961 58.0057Z" fill="black"/>
<path d="M202.488 71.2539C202.394 71.3535 200.732 71.5528 198.756 71.6856L195.213 71.9512L198.035 71.9844C199.603 72.0176 201.547 71.8184 202.425 71.586C203.303 71.3203 203.711 71.0879 203.335 71.0879C202.99 71.0547 202.613 71.1543 202.488 71.2539Z" fill="black"/>
<path d="M63.9106 78.5918C64.1301 78.6914 64.4124 78.6582 64.5064 78.5586C64.6319 78.459 64.4437 78.3594 64.0988 78.3926C63.7538 78.3926 63.6597 78.4922 63.9106 78.5918Z" fill="black"/>
<path d="M65.4786 78.9237C65.8549 78.9903 66.4821 78.9903 66.8897 78.9237C67.266 78.8572 66.9524 78.7906 66.1685 78.7906C65.3845 78.7906 65.0709 78.8572 65.4786 78.9237Z" fill="black"/>
<path d="M244.604 99.4765C245.043 100.008 245.451 100.506 245.545 100.605C245.639 100.705 246.109 101.27 246.579 101.867C247.52 103.129 247.677 103.029 246.893 101.668C246.14 100.373 245.168 99.2773 244.447 98.8789C243.914 98.5801 243.945 98.6797 244.604 99.4765Z" fill="black"/>
<path d="M287.817 113.787C288.037 113.887 288.319 113.854 288.413 113.754C288.538 113.654 288.35 113.555 288.005 113.588C287.66 113.588 287.566 113.688 287.817 113.787Z" fill="black"/>
<path d="M256.928 254.568C257.21 254.635 257.712 254.635 258.026 254.568C258.308 254.468 258.057 254.402 257.461 254.402C256.865 254.402 256.614 254.468 256.928 254.568Z" fill="black"/>
<path d="M63.2834 261.873C63.5029 261.973 63.7852 261.939 63.8792 261.84C64.0047 261.74 63.8165 261.641 63.4716 261.674C63.1266 261.674 63.0325 261.773 63.2834 261.873Z" fill="black"/>
<path d="M326.891 268.813C328.083 270.207 330.278 271.668 331.783 272.066C332.222 272.199 331.532 271.701 330.246 270.971C328.961 270.24 327.424 269.145 326.797 268.547C325.668 267.451 325.668 267.451 326.891 268.813Z" fill="black"/>
<path d="M130.393 283.123C130.769 283.189 131.333 283.189 131.647 283.123C131.929 283.023 131.616 282.957 130.926 282.99C130.236 282.99 129.985 283.056 130.393 283.123Z" fill="black"/>
<path d="M134.469 283.123C134.846 283.189 135.473 283.189 135.881 283.123C136.257 283.056 135.943 282.99 135.159 282.99C134.375 282.99 134.062 283.056 134.469 283.123Z" fill="black"/>
<path d="M128.511 283.455C128.699 283.521 129.076 283.521 129.295 283.455C129.483 283.355 129.326 283.289 128.887 283.289C128.448 283.289 128.292 283.355 128.511 283.455Z" fill="black"/>
<path d="M136.978 283.455C137.166 283.521 137.543 283.521 137.762 283.455C137.95 283.355 137.794 283.289 137.354 283.289C136.915 283.289 136.759 283.355 136.978 283.455Z" fill="black"/>
<path d="M139.079 283.887C139.424 284.053 139.926 284.186 140.177 284.186C140.459 284.186 140.428 284.053 140.02 283.887C139.675 283.721 139.173 283.588 138.922 283.588C138.64 283.588 138.672 283.721 139.079 283.887Z" fill="black"/>
<path d="M143.375 285.746C144.504 286.41 146.041 287.473 146.762 288.104C147.452 288.734 148.111 289.199 148.173 289.133C148.518 288.768 142.466 284.551 141.588 284.551C141.431 284.584 142.215 285.115 143.375 285.746Z" fill="black"/>
<path d="M228.924 366.396C230.022 367.027 231.496 368.123 232.217 368.82L233.471 370.049L232.248 368.654C231.182 367.426 227.889 365.234 227.168 365.234C227.011 365.234 227.795 365.766 228.924 366.396Z" fill="black"/>
<path d="M294.967 390.768C294.434 390.867 295.845 390.967 298.04 390.967C300.236 390.967 301.709 390.867 301.302 390.734C300.392 390.469 296.159 390.469 294.967 390.768Z" fill="black"/>
</svg>
