<svg width="44" height="49" viewBox="0 0 44 49" fill="none" xmlns="http://www.w3.org/2000/svg">
<path d="M33 16.3333H31.1667V12.25C31.1667 6.615 27.06 2.04167 22 2.04167C16.94 2.04167 12.8333 6.615 12.8333 12.25V16.3333H11C8.98334 16.3333 7.33334 18.1708 7.33334 20.4167V40.8333C7.33334 43.0792 8.98334 44.9167 11 44.9167H33C35.0167 44.9167 36.6667 43.0792 36.6667 40.8333V20.4167C36.6667 18.1708 35.0167 16.3333 33 16.3333ZM22 34.7083C19.9833 34.7083 18.3333 32.8708 18.3333 30.625C18.3333 28.3792 19.9833 26.5417 22 26.5417C24.0167 26.5417 25.6667 28.3792 25.6667 30.625C25.6667 32.8708 24.0167 34.7083 22 34.7083ZM27.6833 16.3333H16.3167V12.25C16.3167 8.75875 18.865 5.92084 22 5.92084C25.135 5.92084 27.6833 8.75875 27.6833 12.25V16.3333Z" fill="#30ADD5"/>
</svg>
