<svg width="730" height="163" viewBox="0 0 730 163" fill="none" xmlns="http://www.w3.org/2000/svg">
<rect y="84.2531" width="115" height="115" transform="rotate(-47.1078 0 84.2531)" fill="#30ADD5"/>
<g clip-path="url(#clip0)">
<path d="M61.6114 112.301L89.4974 82.1808C96.9255 84.7807 105.461 82.8652 111.283 76.5764C117.412 69.9565 118.329 60.3347 114.542 52.8055L101.365 67.0381L91.4597 57.819L104.625 43.2672C96.8427 39.7217 87.3526 41.6728 81.2238 48.2926C75.4015 54.5814 74.1305 63.2576 77.2685 70.4914L49.3825 100.612C48.1567 101.936 48.228 103.85 49.5487 105.08L57.1431 112.148C58.4757 113.696 60.7039 113.613 61.6114 112.301Z" fill="black"/>
</g>
<path d="M229.36 100L216.56 82C215.12 82.16 213.627 82.24 212.08 82.24H197.04V100H191.12V44H212.08C219.227 44 224.827 45.7067 228.88 49.12C232.933 52.5333 234.96 57.2267 234.96 63.2C234.96 67.5733 233.84 71.28 231.6 74.32C229.413 77.3067 226.267 79.4667 222.16 80.8L235.84 100H229.36ZM211.92 77.2C217.467 77.2 221.707 75.9733 224.64 73.52C227.573 71.0667 229.04 67.6267 229.04 63.2C229.04 58.6667 227.573 55.2 224.64 52.8C221.707 50.3467 217.467 49.12 211.92 49.12H197.04V77.2H211.92ZM284.373 80.72H249.173C249.493 85.0933 251.173 88.64 254.213 91.36C257.253 94.0267 261.093 95.36 265.733 95.36C268.346 95.36 270.746 94.9067 272.933 94C275.119 93.04 277.013 91.6533 278.613 89.84L281.813 93.52C279.946 95.76 277.599 97.4667 274.773 98.64C271.999 99.8133 268.933 100.4 265.573 100.4C261.253 100.4 257.413 99.4933 254.053 97.68C250.746 95.8133 248.159 93.2533 246.293 90C244.426 86.7467 243.493 83.0667 243.493 78.96C243.493 74.8533 244.373 71.1733 246.133 67.92C247.946 64.6667 250.399 62.1333 253.493 60.32C256.639 58.5067 260.159 57.6 264.053 57.6C267.946 57.6 271.439 58.5067 274.533 60.32C277.626 62.1333 280.053 64.6667 281.813 67.92C283.573 71.12 284.453 74.8 284.453 78.96L284.373 80.72ZM264.053 62.48C259.999 62.48 256.586 63.7867 253.813 66.4C251.093 68.96 249.546 72.32 249.173 76.48H279.013C278.639 72.32 277.066 68.96 274.293 66.4C271.573 63.7867 268.159 62.48 264.053 62.48ZM317.694 57.6C321.64 57.6 325.214 58.5067 328.414 60.32C331.614 62.08 334.12 64.5867 335.934 67.84C337.747 71.0933 338.654 74.8 338.654 78.96C338.654 83.1733 337.747 86.9067 335.934 90.16C334.12 93.4133 331.614 95.9467 328.414 97.76C325.267 99.52 321.694 100.4 317.694 100.4C314.28 100.4 311.187 99.7067 308.414 98.32C305.694 96.88 303.454 94.8 301.694 92.08V115.52H296.014V57.92H301.454V66.24C303.16 63.4667 305.4 61.3333 308.174 59.84C311 58.3467 314.174 57.6 317.694 57.6ZM317.294 95.36C320.227 95.36 322.894 94.6933 325.294 93.36C327.694 91.9733 329.56 90.0267 330.894 87.52C332.28 85.0133 332.974 82.16 332.974 78.96C332.974 75.76 332.28 72.9333 330.894 70.48C329.56 67.9733 327.694 66.0267 325.294 64.64C322.894 63.2533 320.227 62.56 317.294 62.56C314.307 62.56 311.614 63.2533 309.214 64.64C306.867 66.0267 305 67.9733 303.614 70.48C302.28 72.9333 301.614 75.76 301.614 78.96C301.614 82.16 302.28 85.0133 303.614 87.52C305 90.0267 306.867 91.9733 309.214 93.36C311.614 94.6933 314.307 95.36 317.294 95.36ZM388.153 57.92V100H382.712V92.32C381.219 94.88 379.166 96.88 376.553 98.32C373.939 99.7067 370.953 100.4 367.593 100.4C362.099 100.4 357.753 98.88 354.553 95.84C351.406 92.7467 349.833 88.24 349.833 82.32V57.92H355.513V81.76C355.513 86.1867 356.606 89.5467 358.793 91.84C360.979 94.1333 364.099 95.28 368.153 95.28C372.579 95.28 376.073 93.9467 378.633 91.28C381.193 88.56 382.473 84.8 382.473 80V57.92H388.153ZM440.701 80.72H405.501C405.821 85.0933 407.501 88.64 410.541 91.36C413.581 94.0267 417.421 95.36 422.061 95.36C424.674 95.36 427.074 94.9067 429.261 94C431.447 93.04 433.341 91.6533 434.941 89.84L438.141 93.52C436.274 95.76 433.927 97.4667 431.101 98.64C428.327 99.8133 425.261 100.4 421.901 100.4C417.581 100.4 413.741 99.4933 410.381 97.68C407.074 95.8133 404.487 93.2533 402.621 90C400.754 86.7467 399.821 83.0667 399.821 78.96C399.821 74.8533 400.701 71.1733 402.461 67.92C404.274 64.6667 406.727 62.1333 409.821 60.32C412.967 58.5067 416.487 57.6 420.381 57.6C424.274 57.6 427.767 58.5067 430.861 60.32C433.954 62.1333 436.381 64.6667 438.141 67.92C439.901 71.12 440.781 74.8 440.781 78.96L440.701 80.72ZM420.381 62.48C416.327 62.48 412.914 63.7867 410.141 66.4C407.421 68.96 405.874 72.32 405.501 76.48H435.341C434.967 72.32 433.394 68.96 430.621 66.4C427.901 63.7867 424.487 62.48 420.381 62.48ZM463.622 100.4C460.209 100.4 456.929 99.92 453.782 98.96C450.689 97.9467 448.262 96.6933 446.502 95.2L449.062 90.72C450.822 92.1067 453.035 93.2533 455.702 94.16C458.369 95.0133 461.142 95.44 464.022 95.44C467.862 95.44 470.689 94.8533 472.502 93.68C474.369 92.4533 475.302 90.7467 475.302 88.56C475.302 87.0133 474.795 85.8133 473.782 84.96C472.769 84.0533 471.489 83.3867 469.942 82.96C468.395 82.48 466.342 82.0267 463.782 81.6C460.369 80.96 457.622 80.32 455.542 79.68C453.462 78.9867 451.675 77.84 450.182 76.24C448.742 74.64 448.022 72.4267 448.022 69.6C448.022 66.08 449.489 63.2 452.422 60.96C455.355 58.72 459.435 57.6 464.662 57.6C467.382 57.6 470.102 57.9733 472.822 58.72C475.542 59.4133 477.782 60.3467 479.542 61.52L477.062 66.08C473.595 63.68 469.462 62.48 464.662 62.48C461.035 62.48 458.289 63.12 456.422 64.4C454.609 65.68 453.702 67.36 453.702 69.44C453.702 71.04 454.209 72.32 455.222 73.28C456.289 74.24 457.595 74.96 459.142 75.44C460.689 75.8667 462.822 76.32 465.542 76.8C468.902 77.44 471.595 78.08 473.622 78.72C475.649 79.36 477.382 80.4533 478.822 82C480.262 83.5467 480.982 85.68 480.982 88.4C480.982 92.08 479.435 95.0133 476.342 97.2C473.302 99.3333 469.062 100.4 463.622 100.4ZM513.643 97.44C512.576 98.4 511.243 99.1467 509.643 99.68C508.096 100.16 506.469 100.4 504.763 100.4C500.816 100.4 497.776 99.3333 495.643 97.2C493.509 95.0667 492.443 92.0533 492.443 88.16V62.72H484.923V57.92H492.443V48.72H498.123V57.92H510.923V62.72H498.123V87.84C498.123 90.3467 498.736 92.2667 499.963 93.6C501.243 94.88 503.056 95.52 505.403 95.52C506.576 95.52 507.696 95.3333 508.763 94.96C509.883 94.5867 510.843 94.0533 511.643 93.36L513.643 97.44ZM539.698 100.4C535.645 100.4 531.991 99.4933 528.738 97.68C525.485 95.8133 522.925 93.2533 521.058 90C519.191 86.7467 518.258 83.0667 518.258 78.96C518.258 74.8533 519.191 71.1733 521.058 67.92C522.925 64.6667 525.485 62.1333 528.738 60.32C531.991 58.5067 535.645 57.6 539.698 57.6C543.751 57.6 547.405 58.5067 550.658 60.32C553.911 62.1333 556.445 64.6667 558.258 67.92C560.125 71.1733 561.058 74.8533 561.058 78.96C561.058 83.0667 560.125 86.7467 558.258 90C556.445 93.2533 553.911 95.8133 550.658 97.68C547.405 99.4933 543.751 100.4 539.698 100.4ZM539.698 95.36C542.685 95.36 545.351 94.6933 547.698 93.36C550.098 91.9733 551.965 90.0267 553.298 87.52C554.631 85.0133 555.298 82.16 555.298 78.96C555.298 75.76 554.631 72.9067 553.298 70.4C551.965 67.8933 550.098 65.9733 547.698 64.64C545.351 63.2533 542.685 62.56 539.698 62.56C536.711 62.56 534.018 63.2533 531.618 64.64C529.271 65.9733 527.405 67.8933 526.018 70.4C524.685 72.9067 524.018 75.76 524.018 78.96C524.018 82.16 524.685 85.0133 526.018 87.52C527.405 90.0267 529.271 91.9733 531.618 93.36C534.018 94.6933 536.711 95.36 539.698 95.36ZM583.934 100.4C580.521 100.4 577.241 99.92 574.094 98.96C571.001 97.9467 568.574 96.6933 566.814 95.2L569.374 90.72C571.134 92.1067 573.348 93.2533 576.014 94.16C578.681 95.0133 581.454 95.44 584.334 95.44C588.174 95.44 591.001 94.8533 592.814 93.68C594.681 92.4533 595.614 90.7467 595.614 88.56C595.614 87.0133 595.108 85.8133 594.094 84.96C593.081 84.0533 591.801 83.3867 590.254 82.96C588.708 82.48 586.654 82.0267 584.094 81.6C580.681 80.96 577.934 80.32 575.854 79.68C573.774 78.9867 571.988 77.84 570.494 76.24C569.054 74.64 568.334 72.4267 568.334 69.6C568.334 66.08 569.801 63.2 572.734 60.96C575.668 58.72 579.748 57.6 584.974 57.6C587.694 57.6 590.414 57.9733 593.134 58.72C595.854 59.4133 598.094 60.3467 599.854 61.52L597.374 66.08C593.908 63.68 589.774 62.48 584.974 62.48C581.348 62.48 578.601 63.12 576.734 64.4C574.921 65.68 574.014 67.36 574.014 69.44C574.014 71.04 574.521 72.32 575.534 73.28C576.601 74.24 577.908 74.96 579.454 75.44C581.001 75.8667 583.134 76.32 585.854 76.8C589.214 77.44 591.908 78.08 593.934 78.72C595.961 79.36 597.694 80.4533 599.134 82C600.574 83.5467 601.294 85.68 601.294 88.4C601.294 92.08 599.748 95.0133 596.654 97.2C593.614 99.3333 589.374 100.4 583.934 100.4Z" fill="black"/>
<defs>
<clipPath id="clip0">
<rect width="76.6484" height="76.4483" fill="white" transform="translate(119.396 37.6042) rotate(87.8691)"/>
</clipPath>
</defs>
</svg>
