<svg width="163" height="163" viewBox="0 0 163 163" fill="none" xmlns="http://www.w3.org/2000/svg">
<rect y="84.2531" width="115" height="115" transform="rotate(-47.1078 0 84.2531)" fill="#30ADD5"/>
<g clip-path="url(#clip0)">
<path d="M61.6114 112.301L89.4974 82.1808C96.9255 84.7807 105.461 82.8652 111.283 76.5764C117.412 69.9565 118.329 60.3347 114.542 52.8055L101.365 67.0381L91.4597 57.819L104.625 43.2672C96.8427 39.7217 87.3526 41.6728 81.2238 48.2926C75.4015 54.5814 74.1305 63.2576 77.2685 70.4914L49.3825 100.612C48.1567 101.936 48.228 103.85 49.5487 105.08L57.1431 112.148C58.4757 113.696 60.7039 113.613 61.6114 112.301Z" fill="black"/>
</g>
<defs>
<clipPath id="clip0">
<rect width="76.6484" height="76.4483" fill="white" transform="translate(119.396 37.6042) rotate(87.8691)"/>
</clipPath>
</defs>
</svg>
